<svg width="25" height="24" viewBox="0 0 25 24" fill="none" xmlns="http://www.w3.org/2000/svg">
<path fill-rule="evenodd" clip-rule="evenodd" d="M3.9353 11.5C3.9353 11.2239 4.15916 11 4.4353 11L20.4353 11C20.7114 11 20.9353 11.2239 20.9353 11.5C20.9353 11.7761 20.7114 12 20.4353 12L4.4353 12C4.15916 12 3.9353 11.7761 3.9353 11.5Z" fill="#333333"/>
<path fill-rule="evenodd" clip-rule="evenodd" d="M16.5817 7.64645C16.777 7.45118 17.0936 7.45118 17.2889 7.64645L21.1424 11.5L17.2889 15.3536C17.0936 15.5488 16.777 15.5488 16.5817 15.3536C16.3865 15.1583 16.3865 14.8417 16.5817 14.6464L19.7282 11.5L16.5817 8.35355C16.3865 8.15829 16.3865 7.84171 16.5817 7.64645Z" fill="#333333"/>
</svg>
