<svg width="32" height="20" viewBox="0 0 32 20" fill="none" xmlns="http://www.w3.org/2000/svg">
<g clip-path="url(#clip0_1_163)">
<path d="M20.7856 9.79036L21.3741 11.1483C21.4828 11.3985 21.7823 11.5169 22.0435 11.4129C22.3052 11.31 22.4293 11.0234 22.3209 10.773L21.7326 9.41553L20.7856 9.79036Z" fill="#333333"/>
<path d="M21.1782 10.6957L22.125 10.3208L21.1782 10.6957Z" fill="#333333"/>
<path d="M19.5439 6.92432L20.883 7.45444L19.5439 6.92432Z" fill="#333333"/>
<path d="M20.2726 4.17196C20.2726 4.89355 19.661 5.47839 18.9069 5.47839C18.152 5.47839 17.5403 4.89355 17.5403 4.17196C17.5403 3.4505 18.152 2.86597 18.9069 2.86597C19.6609 2.86597 20.2726 3.4505 20.2726 4.17196Z" fill="#333333"/>
<path d="M19.5894 4.17176C19.5894 4.53277 19.2838 4.82526 18.9067 4.82526C18.5292 4.82526 18.2229 4.53277 18.2229 4.17176C18.2229 3.81104 18.5292 3.51855 18.9067 3.51855C19.2838 3.51839 19.5894 3.81104 19.5894 4.17176Z" fill="#333333"/>
<path d="M17.9486 5.10303L16.0796 9.41583L15.6111 11.3512L15.9266 11.4762L17.0267 9.79067L17.2884 9.18746C17.0842 8.71585 17.3181 8.17513 17.8113 7.98016L18.895 5.47786C18.5264 5.47493 18.193 5.33258 17.9486 5.10303Z" fill="#333333"/>
<path d="M19.8644 5.10278C19.6199 5.33264 19.2861 5.47499 18.9175 5.47778L20.5251 9.18677L21.4716 8.8121L19.8644 5.10278Z" fill="#333333"/>
<path d="M19.4189 2.21248V0.742671C19.4187 0.471798 19.1886 0.252686 18.9066 0.252686C18.6235 0.252686 18.3942 0.471502 18.394 0.742671L18.3942 2.21248H19.4189Z" fill="#333333"/>
<path d="M18.9069 2.86586C18.9942 2.86586 19.0798 2.87424 19.1626 2.88925V2.21265H18.6504V2.88925C18.7335 2.8741 18.8187 2.86586 18.9069 2.86586Z" fill="#333333"/>
<path d="M11.7924 12.0166H10.0881V0.252441H11.7927C12.1693 0.252441 12.4744 0.545227 12.4744 0.906246V11.3634H12.4742C12.4741 11.7245 12.169 12.0166 11.7924 12.0166Z" fill="#333333"/>
<path d="M11.7076 1.23296C11.8488 1.23296 11.9633 1.1232 11.9633 0.987815C11.9633 0.852428 11.8488 0.742676 11.7076 0.742676C11.5664 0.742676 11.4519 0.852428 11.4519 0.987815C11.4519 1.1232 11.5664 1.23296 11.7076 1.23296Z" fill="#333333"/>
<path d="M13.6675 7.19702C13.6675 7.33188 13.7821 7.44201 13.9232 7.44201C14.0645 7.44201 14.1789 7.33188 14.1789 7.19702C14.1789 7.33188 14.2937 7.44201 14.4346 7.44201C14.5759 7.44201 14.6903 7.33188 14.6903 7.19702C14.6903 7.33188 14.5759 7.44201 14.4346 7.44201C14.2937 7.44201 14.1789 7.33188 14.1789 7.19702C14.1789 7.33188 14.0645 7.44201 13.9232 7.44201C13.7821 7.44201 13.6675 7.33188 13.6675 7.19702Z" fill="#333333"/>
<path d="M14.0085 0.252441C13.8204 0.252441 13.6675 0.399055 13.6675 0.579637V0.579489V7.44207L14.1787 9.40274L14.6902 7.44207V0.579344V0.579489C14.6902 0.399202 14.5374 0.252588 14.3492 0.252588L14.0085 0.252441Z" fill="#333333"/>
</g>
<defs>
<clipPath id="clip0_1_163">
<rect width="31.5518" height="19.1134" fill="white" transform="translate(0.448242 0.142822)"/>
</clipPath>
</defs>
</svg>
