<svg width="67" height="40" viewBox="0 0 67 40" fill="none" xmlns="http://www.w3.org/2000/svg">
<g clip-path="url(#clip0_1_163)">
<path d="M42.8579 20.2609L44.085 23.0925C44.3118 23.6144 44.9362 23.8613 45.4809 23.6445C46.0267 23.4298 46.2854 22.8322 46.0593 22.31L44.8325 19.4792L42.8579 20.2609Z" fill="white"/>
<path d="M43.6765 22.1486L45.6508 21.3669L43.6765 22.1486Z" fill="white"/>
<path d="M40.2686 14.2842L43.0608 15.3897L40.2686 14.2842Z" fill="white"/>
<path d="M41.7881 8.54467C41.7881 10.0494 40.5127 11.269 38.9402 11.269C37.366 11.269 36.0903 10.0494 36.0903 8.54467C36.0903 7.04022 37.366 5.82129 38.9402 5.82129C40.5124 5.82129 41.7881 7.04022 41.7881 8.54467Z" fill="white"/>
<path d="M40.3632 8.54425C40.3632 9.29708 39.726 9.907 38.9397 9.907C38.1525 9.907 37.5137 9.29708 37.5137 8.54425C37.5137 7.79205 38.1525 7.18213 38.9397 7.18213C39.726 7.18179 40.3632 7.79205 40.3632 8.54425Z" fill="white"/>
<path d="M36.9418 10.4863L33.0443 19.4798L32.0674 23.5157L32.7254 23.7763L35.0193 20.2615L35.565 19.0036C35.1392 18.0201 35.627 16.8926 36.6555 16.486L38.9154 11.268C38.1468 11.2619 37.4513 10.965 36.9418 10.4863Z" fill="white"/>
<path d="M40.9368 10.4858C40.4269 10.9652 39.7308 11.262 38.9622 11.2678L42.3145 19.0022L44.2882 18.2209L40.9368 10.4858Z" fill="white"/>
<path d="M40.0078 4.45859V1.39359C40.0074 0.828741 39.5276 0.371826 38.9394 0.371826C38.3492 0.371826 37.871 0.828123 37.8706 1.39359L37.871 4.45859H40.0078Z" fill="white"/>
<path d="M38.9401 5.82113C39.1222 5.82113 39.3006 5.83861 39.4734 5.86991V4.45898H38.4053V5.86991C38.5787 5.83831 38.7562 5.82113 38.9401 5.82113Z" fill="white"/>
<path d="M24.1042 24.9032H20.5503V0.371338H24.1048C24.8901 0.371338 25.5264 0.981885 25.5264 1.73472V23.5411H25.5261C25.5257 24.2939 24.8895 24.9032 24.1042 24.9032Z" fill="white"/>
<path d="M23.9275 2.41618C24.222 2.41618 24.4608 2.18731 24.4608 1.90499C24.4608 1.62267 24.222 1.3938 23.9275 1.3938C23.633 1.3938 23.3943 1.62267 23.3943 1.90499C23.3943 2.18731 23.633 2.41618 23.9275 2.41618Z" fill="white"/>
<path d="M28.0144 14.853C28.0144 15.1343 28.2534 15.3639 28.5476 15.3639C28.8422 15.3639 29.0809 15.1343 29.0809 14.853C29.0809 15.1343 29.3202 15.3639 29.6141 15.3639C29.9087 15.3639 30.1473 15.1343 30.1473 14.853C30.1473 15.1343 29.9087 15.3639 29.6141 15.3639C29.3202 15.3639 29.0809 15.1343 29.0809 14.853C29.0809 15.1343 28.8422 15.3639 28.5476 15.3639C28.2534 15.3639 28.0144 15.1343 28.0144 14.853Z" fill="white"/>
<path d="M28.7255 0.371338C28.3333 0.371338 28.0144 0.67707 28.0144 1.05364V1.05333V15.3639L29.0805 19.4525L30.1471 15.3639V1.05303V1.05333C30.1471 0.677377 29.8285 0.371644 29.4359 0.371644L28.7255 0.371338Z" fill="white"/>
</g>
<defs>
<clipPath id="clip0_1_163">
<rect width="65.7949" height="39.8572" fill="white" transform="translate(0.448242 0.142822)"/>
</clipPath>
</defs>
</svg>
